# AST/ASF file generated using VICON BodyLanguage
# -----------------------------------------------
:version 1.10
:name VICON
:units
  mass 1.0
  length 0.45
  angle deg
:documentation
   .ast/.asf automatically generated from VICON data using
   VICON BodyBuilder and BodyLanguage model FoxedUp or BRILLIANT.MOD
:root
   order TX TY TZ RX RY RZ
   axis XYZ
   position 0 0 0  
   orientation 0 0 0 
:bonedata
  begin
     id 1 
     name lhipjoint
     direction 0.624716 -0.669793 0.401383 
     length 2.38238 
     axis 0 0 0  XYZ
  end
  begin
     id 2 
     name lfemur
     direction 0.34202 -0.939693 0  
     length 6.4574  
     axis 0 0 20  XYZ
    dof rx ry rz
    limits (-160.0 20.0)
           (-70.0 70.0)
           (-60.0 70.0)
  end
  begin
     id 3 
     name ltibia
     direction 0.34202 -0.939693 0   
     length 7.68739   
     axis 0 0 20   XYZ
    dof rx
    limits (-10.0 170.0)
  end
  begin
     id 4 
     name lfoot
     direction 0.0681309 -0.187188 0.979959   
     length 2.46615   
     axis -90 7.62852e-016 20   XYZ
    dof rx rz
    limits (-45.0 90.0)
           (-70.0 20.0)
  end
  begin
     id 5 
     name ltoes
     direction 1.53566e-011 -4.21819e-011 1   
     length 1.2376   
     axis -90 7.62852e-016 20   XYZ
    dof rx
    limits (-90.0 20.0)
  end
  begin
     id 6 
     name rhipjoint
     direction -0.644473 -0.655875 0.393043   
     length 2.43293  
     axis 0 0 0  XYZ 
  end
  begin
     id 7 
     name rfemur
     direction -0.34202 -0.939693 0   
     length 6.7025   
     axis 0 0 -20   XYZ
    dof rx ry rz
    limits (-160.0 20.0)
           (-70.0 70.0)
           (-70.0 60.0)
  end
  begin
     id 8 
     name rtibia
     direction -0.34202 -0.939693 0   
     length 7.80547   
     axis 0 0 -20   XYZ
    dof rx
    limits (-10.0 170.0)
 end
 begin
     id 9 
     name rfoot
     direction -0.0756734 -0.207911 0.975216   
     length 2.40315  
     axis -90 -7.62852e-016 -20   XYZ
    dof rx rz
    limits (-45.0 90.0)
           (-20.0 70.0)
  end
  begin
     id 10 
     name rtoes
     direction -1.5353e-011 -4.21879e-011 1   
     length 1.20477   
     axis -90 -7.62852e-016 -20   XYZ
    dof rx
    limits (-90.0 20.0)
  end
  begin
     id 11 
     name lowerback
     direction 0.0160353 0.987463 -0.157037   
     length 2.18572   
     axis 0 0 0   XYZ
    dof rx ry rz
    limits (-20.0 45.0)
           (-30.0 30.0)
           (-30.0 30.0)
  end
  begin
     id 12 
     name upperback
     direction -0.00499661 0.999756 0.0215076   
     length 2.18016   
     axis 0 0 0   XYZ
    dof rx ry rz
    limits (-20.0 45.0)
           (-30.0 30.0)
           (-30.0 30.0)
  end
  begin
     id 13 
     name thorax
     direction -0.00921346 0.995333 0.0960619   
     length 2.24923   
     axis 0 0 0   XYZ
    dof rx ry rz
    limits (-20.0 45.0)
           (-30.0 30.0)
           (-30.0 30.0)
  end
  begin
     id 14 
     name lowerneck
     direction 0.0274184 0.991181 0.12965   
     length 1.70911   
     axis 0 0 0   XYZ
    dof rx ry rz
    limits (-20.0 45.0)
           (-30.0 30.0)
           (-30.0 30.0)
  end
  begin
     id 15 
     name upperneck
     direction 0.0015627 0.999959 -0.00893559   
     length 1.69312   
     axis 0 0 0   XYZ
    dof rx ry rz
    limits (-20.0 45.0)
           (-30.0 30.0)
           (-30.0 30.0)
  end
  begin
     id 16
     name head
     direction -0.00230242 0.999856 -0.0168327  
     length 1.80241  
     axis 0 0 0   XYZ
    dof rx ry rz
    limits (-20.0 45.0)
           (-30.0 30.0)
           (-30.0 30.0)
  end
  begin
     id 17 
     name lclavicle
     direction 0.955523 0.290741 -0.0494489  
     length 3.84275  
     axis 0 0 0   XYZ
    dof ry rz
    limits (-20.0 10.0)
           (0.0 20.0)
  end
  begin
     id 18 
     name lhumerus
     direction 1 -4.48967e-011 -3.18382e-028   
     length 5.17714   
     axis 180 -30 -90   XYZ
    dof rx ry rz
    limits (-60.0 90.0)
           (-90.0 90.0)
           (-90.0 90.0)
  end
  begin
     id 19
     name lradius
     direction 1 -4.48968e-011 -2.22911e-027   
     length 3.43679   
     axis 180 -30 -90   XYZ
    dof rx
    limits (-10.0 170.0)
  end
  begin
     id 20
     name lwrist
     direction 1 -4.48951e-011 -6.32245e-027   
     length 1.7184   
     axis 3.57107e-015 90 90   XYZ
    dof ry
    limits (-180.0 0.0)
 end
  begin
     id 21 
     name lhand
     direction 1 -4.48924e-011 -1.26431e-026   
     length 0.573117   
     axis 8.06912e-015 90 90   XYZ
    dof rx rz
    limits (-90.0 90.0)
           (-45.0 45.0)
  end
  begin
     id 22 
     name lfingers
     direction 1 -4.49001e-011 -2.52965e-026   
     length 0.462062   
     axis 1.61381e-014 90 90   XYZ
    dof rx
    limits (0.0 90.0)
  end
  begin
     id 23
     name lthumb
     direction 0.707107 -6.35008e-011 0.707107   
     length 0.663431   
     axis -90 45 -1.62303e-014   XYZ
    dof rx rz
    limits (-45.0 45.0)
           (-45.0 45.0)
  end
  begin
     id 24 
     name rclavicle
     direction -0.963917 0.256881 -0.0698287   
     length 3.73057  
     axis 0 0 0   XYZ 
    dof ry rz
    limits (-10.0 20.0)
           (-20.0 0.0)
  end
  begin
     id 25 
     name rhumerus
     direction -1 -4.48962e-011 -2.73982e-027  
     length 5.23908   
     axis 180 30 90   XYZ
    dof rx ry rz
    limits (-90.0 60.0)
           (-90.0 90.0)
           (-90.0 90.0)
  end
  begin
     id 26 
     name rradius
     direction -1 -4.48968e-011 -4.33218e-027   
     length 3.46485   
     axis 180 30 90   XYZ
    dof rx
    limits (-10.0 170.0)
  end
  begin
     id 27 
     name rwrist
     direction -1 -4.48989e-011 -6.32372e-027   
     length 1.73243   
     axis 3.57107e-015 -90 -90   XYZ
    dof ry
    limits (-180.0 0.0)
  end
  begin
     id 28
     name rhand
     direction -1 -4.48948e-011 -1.26448e-026   
     length 0.608752   
     axis 8.06912e-015 -90 -90   XYZ
    dof rx rz
    limits (-90.0 90.0)
           (-45.0 45.0)
  end
  begin
     id 29
     name rfingers
     direction -1 -4.48962e-011 -2.52913e-026   
     length 0.490792   
     axis 1.61381e-014 -90 -90   XYZ
    dof rx
    limits (0.0 90.0)
  end
  begin
     id 30
     name rthumb
     direction -0.707107 -6.34878e-011 0.707107   
     length 0.704682   
     axis -90 -45 1.62303e-014   XYZ
    dof rx rz
    limits (-45.0 45.0)
           (-45.0 45.0)
  end
:hierarchy
  begin
    root lhipjoint rhipjoint lowerback
    lhipjoint lfemur
    lfemur ltibia
    ltibia lfoot
    lfoot ltoes
    rhipjoint rfemur
    rfemur rtibia
    rtibia rfoot
    rfoot rtoes
    lowerback upperback
    upperback thorax
    thorax lowerneck lclavicle rclavicle
    lowerneck upperneck
    upperneck head
    lclavicle lhumerus
    lhumerus lradius
    lradius lwrist
    lwrist lhand lthumb
    lhand lfingers
    rclavicle rhumerus
    rhumerus rradius
    rradius rwrist
    rwrist rhand rthumb
    rhand rfingers
  end

#!OML:ASF G:\JayActor3\Patient Classification 1\Patient 1\Session 6\male.ASF
:FULLY-SPECIFIED
:DEGREES
206
root 50.1422 15.6754 -27.6386 5.90396 -61.2512 -7.78949
lowerback 0.265306 0.317382 3.05525
upperback 2.28333 0.379543 -0.0193568
thorax 2.21569 0.243101 -1.72563
lowerneck -0.644672 -1.55777 1.7575
upperneck -5.19802 -2.07175 0.644796
head -1.50559 -1.09167 -0.0692516
rclavicle -1.47846e-014 -1.07344e-014
rhumerus -33.9665 -10.5111 -82.8964
rradius 28.9563
rwrist 2.57459
rhand -20.6578 -6.81043
rfingers 7.12502
rthumb 5.70472 -36.7136
lclavicle -1.47846e-014 -1.07344e-014
lhumerus -30.189 10.1968 82.1993
lradius 24.2757
lwrist 19.0539
lhand -17.5217 6.23389
lfingers 7.12502
lthumb 8.73189 36.0333
rfemur -10.7276 -1.66611 26.2355
rtibia 36.5196
rfoot -26.9154 -15.0131
rtoes 3.66043
lfemur -6.04074 8.66623 -17.823
ltibia 28.0844
lfoot -20.935 8.92143
ltoes -0.92779
207
root 50.1409 15.6747 -27.636 5.91126 -61.2528 -7.79287
lowerback 0.289961 0.310348 3.05329
upperback 2.29443 0.370496 -0.0107161
thorax 2.21271 0.238447 -1.7159
lowerneck -0.658492 -1.54915 1.744
upperneck -5.20677 -2.06083 0.642703
head -1.50578 -1.08605 -0.0678548
rclavicle 3.07619e-014 -3.97569e-016
rhumerus -33.9426 -10.4479 -82.905
rradius 28.9746
rwrist 2.56668
rhand -20.6951 -6.7958
rfingers 7.12502
rthumb 5.66873 -36.7
lclavicle 3.07619e-014 -3.97569e-016
lhumerus -30.1722 10.2215 82.2085
lradius 24.2826
lwrist 19.0589
lhand -17.5354 6.2701
lfingers 7.12502
lthumb 8.71866 36.07
rfemur -10.7308 -1.67471 26.2294
rtibia 36.5341
rfoot -26.9236 -15.0046
rtoes 3.64733
lfemur -6.04104 8.64424 -17.8321
ltibia 28.0943
lfoot -20.9689 8.9487
ltoes -0.901967
208
root 50.1396 15.674 -27.6333 5.91628 -61.2516 -7.79387
lowerback 0.319099 0.302492 3.05253
upperback 2.30464 0.360557 -0.00416318
thorax 2.20626 0.233333 -1.70904
lowerneck -0.677361 -1.5409 1.73268
upperneck -5.21079 -2.05051 0.641014
head -1.50362 -1.08073 -0.0667527
rclavicle -8.15017e-015 -5.1684e-015
rhumerus -33.9192 -10.3854 -82.9169
rradius 28.9931
rwrist 2.5639
rhand -20.7365 -6.7745
rfingers 7.12502
rthumb 5.6288 -36.6797
lclavicle -8.15017e-015 -5.1684e-015
lhumerus -30.1533 10.2447 82.2156
lradius 24.2847
lwrist 19.0611
lhand -17.5471 6.29974
lfingers 7.12502
lthumb 8.70741 36.1001
rfemur -10.7335 -1.68682 26.2215
rtibia 36.5489
rfoot -26.9326 -14.9953
rtoes 3.6336
lfemur -6.04194 8.62329 -17.8422
ltibia 28.1053
lfoot -21.0029 8.97455
ltoes -0.882416
209
root 50.1383 15.6732 -27.6305 5.91942 -61.2463 -7.79235
lowerback 0.35232 0.294687 3.05423
upperback 2.3128 0.350926 -0.000976014
thorax 2.19547 0.228379 -1.70702
lowerneck -0.696665 -1.53451 1.72748
upperneck -5.2117 -2.04268 0.638304
head -1.5005 -1.07672 -0.0669713
rclavicle -5.39203e-014 7.95139e-015
rhumerus -33.8995 -10.3296 -82.9311
rradius 29.0122
rwrist 2.56588
rhand -20.7791 -6.74803
rfingers 7.12502
rthumb 5.58764 -36.6544
lclavicle -5.39203e-014 7.95139e-015
lhumerus -30.1338 10.256 82.2216
lradius 24.285
lwrist 19.0665
lhand -17.5557 6.32386
lfingers 7.12502
lthumb 8.69909 36.1246
rfemur -10.7362 -1.70457 26.2116
rtibia 36.5637
rfoot -26.9417 -14.982
rtoes 3.62401
lfemur -6.04456 8.60472 -17.8529
ltibia 28.1183
lfoot -21.037 8.99633
ltoes -0.86828
210
root 50.137 15.6725 -27.6275 5.92186 -61.2356 -7.78957
lowerback 0.387047 0.287591 3.05868
upperback 2.31969 0.34237 -0.000916088
thorax 2.18263 0.224011 -1.70974
lowerneck -0.712823 -1.53101 1.73011
upperneck -5.21186 -2.03863 0.633847
head -1.49782 -1.07469 -0.0689628
rclavicle -1.20762e-014 -1.39149e-014
rhumerus -33.8831 -10.2839 -82.9465
rradius 29.0321
rwrist 2.5706
rhand -20.8236 -6.71645
rfingers 7.12502
rthumb 5.54467 -36.6239
lclavicle -1.20762e-014 -1.39149e-014
lhumerus -30.1121 10.2473 82.2304
lradius 24.286
lwrist 19.0821
lhand -17.5634 6.35365
lfingers 7.12502
lthumb 8.69171 36.1547
rfemur -10.7389 -1.72888 26.2003
rtibia 36.5783
rfoot -26.9515 -14.963
rtoes 3.62194
lfemur -6.04976 8.58693 -17.8635
ltibia 28.1345
lfoot -21.0725 9.01323
ltoes -0.85376
211
root 50.1358 15.6717 -27.6245 5.92471 -61.2195 -7.78711
lowerback 0.419703 0.281558 3.06503
upperback 2.32711 0.33517 -0.00253755
thorax 2.17161 0.22041 -1.71522
lowerneck -0.722813 -1.53061 1.74078
upperneck -5.21445 -2.03862 0.626645
head -1.49713 -1.07482 -0.0730255
rclavicle -5.00192e-014 3.97569e-016
rhumerus -33.8677 -10.2487 -82.9613
rradius 29.0524
rwrist 2.576
rhand -20.8695 -6.68134
rfingers 7.12502
rthumb 5.50032 -36.59
lclavicle -5.00192e-014 3.97569e-016
lhumerus -30.086 10.2128 82.2468
lradius 24.2914
lwrist 19.1157
lhand -17.5753 6.41065
lfingers 7.12502
lthumb 8.68022 36.2122
rfemur -10.7409 -1.76052 26.188
rtibia 36.5926
rfoot -26.9616 -14.9384
rtoes 3.62561
lfemur -6.05794 8.56685 -17.8738
ltibia 28.1553
lfoot -21.1112 9.02833
ltoes -0.834609
